<mxfile host="app.diagrams.net" modified="2024-06-11T22:12:54.758Z" agent="Mozilla/5.0 (Windows NT 10.0; Win64; x64; rv:126.0) Gecko/20100101 Firefox/126.0" etag="kM2lvL-R8GPPtiibU4Op" version="24.5.3" type="device">
  <diagram name="Page-1" id="lPflKcZ20A9XsLAee3wf">
    <mxGraphModel dx="836" dy="1599" grid="1" gridSize="10" guides="1" tooltips="1" connect="1" arrows="1" fold="1" page="1" pageScale="1" pageWidth="850" pageHeight="1100" math="0" shadow="0">
      <root>
        <mxCell id="0" />
        <mxCell id="1" parent="0" />
        <mxCell id="PFAiEy6SkgNWa5Sg33yF-3" value="" style="edgeStyle=orthogonalEdgeStyle;rounded=0;orthogonalLoop=1;jettySize=auto;html=1;" edge="1" parent="1" source="PFAiEy6SkgNWa5Sg33yF-1" target="PFAiEy6SkgNWa5Sg33yF-2">
          <mxGeometry relative="1" as="geometry" />
        </mxCell>
        <mxCell id="PFAiEy6SkgNWa5Sg33yF-24" value="" style="edgeStyle=orthogonalEdgeStyle;rounded=0;orthogonalLoop=1;jettySize=auto;html=1;" edge="1" parent="1" source="PFAiEy6SkgNWa5Sg33yF-1" target="PFAiEy6SkgNWa5Sg33yF-9">
          <mxGeometry relative="1" as="geometry" />
        </mxCell>
        <mxCell id="PFAiEy6SkgNWa5Sg33yF-1" value="Log In" style="rounded=0;whiteSpace=wrap;html=1;" vertex="1" parent="1">
          <mxGeometry x="340" y="40" width="120" height="60" as="geometry" />
        </mxCell>
        <mxCell id="PFAiEy6SkgNWa5Sg33yF-64" value="" style="edgeStyle=orthogonalEdgeStyle;rounded=0;orthogonalLoop=1;jettySize=auto;html=1;" edge="1" parent="1" source="PFAiEy6SkgNWa5Sg33yF-2" target="PFAiEy6SkgNWa5Sg33yF-60">
          <mxGeometry relative="1" as="geometry" />
        </mxCell>
        <mxCell id="PFAiEy6SkgNWa5Sg33yF-2" value="Dashboard" style="rounded=0;whiteSpace=wrap;html=1;" vertex="1" parent="1">
          <mxGeometry x="340" y="180" width="120" height="60" as="geometry" />
        </mxCell>
        <mxCell id="PFAiEy6SkgNWa5Sg33yF-11" value="" style="edgeStyle=orthogonalEdgeStyle;rounded=0;orthogonalLoop=1;jettySize=auto;html=1;" edge="1" parent="1" source="PFAiEy6SkgNWa5Sg33yF-4" target="PFAiEy6SkgNWa5Sg33yF-1">
          <mxGeometry relative="1" as="geometry" />
        </mxCell>
        <mxCell id="PFAiEy6SkgNWa5Sg33yF-4" value="Register" style="rounded=0;whiteSpace=wrap;html=1;" vertex="1" parent="1">
          <mxGeometry x="200" y="-40" width="120" height="60" as="geometry" />
        </mxCell>
        <mxCell id="PFAiEy6SkgNWa5Sg33yF-63" value="" style="edgeStyle=orthogonalEdgeStyle;rounded=0;orthogonalLoop=1;jettySize=auto;html=1;" edge="1" parent="1" source="PFAiEy6SkgNWa5Sg33yF-6" target="PFAiEy6SkgNWa5Sg33yF-58">
          <mxGeometry relative="1" as="geometry" />
        </mxCell>
        <mxCell id="PFAiEy6SkgNWa5Sg33yF-6" value="" style="ellipse;whiteSpace=wrap;html=1;aspect=fixed;fillColor=#f8cecc;strokeColor=#b85450;" vertex="1" parent="1">
          <mxGeometry x="35" y="50" width="40" height="40" as="geometry" />
        </mxCell>
        <mxCell id="PFAiEy6SkgNWa5Sg33yF-8" value="" style="ellipse;html=1;shape=endState;fillColor=#000000;strokeColor=#ff0000;" vertex="1" parent="1">
          <mxGeometry x="20" y="615" width="30" height="30" as="geometry" />
        </mxCell>
        <mxCell id="PFAiEy6SkgNWa5Sg33yF-23" value="" style="edgeStyle=orthogonalEdgeStyle;rounded=0;orthogonalLoop=1;jettySize=auto;html=1;" edge="1" parent="1" source="PFAiEy6SkgNWa5Sg33yF-9" target="PFAiEy6SkgNWa5Sg33yF-21">
          <mxGeometry relative="1" as="geometry" />
        </mxCell>
        <mxCell id="PFAiEy6SkgNWa5Sg33yF-9" value="Course Discovery" style="rounded=0;whiteSpace=wrap;html=1;" vertex="1" parent="1">
          <mxGeometry x="510" y="40" width="120" height="60" as="geometry" />
        </mxCell>
        <mxCell id="PFAiEy6SkgNWa5Sg33yF-13" value="Profile Management" style="rounded=0;whiteSpace=wrap;html=1;" vertex="1" parent="1">
          <mxGeometry x="620" y="400" width="120" height="60" as="geometry" />
        </mxCell>
        <mxCell id="PFAiEy6SkgNWa5Sg33yF-15" value="" style="edgeStyle=orthogonalEdgeStyle;rounded=0;orthogonalLoop=1;jettySize=auto;html=1;" edge="1" parent="1" source="PFAiEy6SkgNWa5Sg33yF-14" target="PFAiEy6SkgNWa5Sg33yF-8">
          <mxGeometry relative="1" as="geometry" />
        </mxCell>
        <mxCell id="PFAiEy6SkgNWa5Sg33yF-14" value="Log Out" style="rounded=0;whiteSpace=wrap;html=1;" vertex="1" parent="1">
          <mxGeometry x="100" y="600" width="120" height="60" as="geometry" />
        </mxCell>
        <mxCell id="PFAiEy6SkgNWa5Sg33yF-18" value="Lecture" style="rounded=0;whiteSpace=wrap;html=1;" vertex="1" parent="1">
          <mxGeometry x="340" y="400" width="120" height="60" as="geometry" />
        </mxCell>
        <mxCell id="PFAiEy6SkgNWa5Sg33yF-20" value="Assignment" style="rounded=0;whiteSpace=wrap;html=1;" vertex="1" parent="1">
          <mxGeometry x="480" y="400" width="120" height="60" as="geometry" />
        </mxCell>
        <mxCell id="PFAiEy6SkgNWa5Sg33yF-25" style="edgeStyle=orthogonalEdgeStyle;rounded=0;orthogonalLoop=1;jettySize=auto;html=1;exitX=0.5;exitY=1;exitDx=0;exitDy=0;entryX=1;entryY=0.5;entryDx=0;entryDy=0;" edge="1" parent="1" source="PFAiEy6SkgNWa5Sg33yF-21" target="PFAiEy6SkgNWa5Sg33yF-2">
          <mxGeometry relative="1" as="geometry" />
        </mxCell>
        <mxCell id="PFAiEy6SkgNWa5Sg33yF-21" value="Enrollment" style="rounded=0;whiteSpace=wrap;html=1;" vertex="1" parent="1">
          <mxGeometry x="680" y="40" width="120" height="60" as="geometry" />
        </mxCell>
        <mxCell id="PFAiEy6SkgNWa5Sg33yF-28" value="Collaboration" style="rounded=0;whiteSpace=wrap;html=1;" vertex="1" parent="1">
          <mxGeometry x="200" y="400" width="120" height="60" as="geometry" />
        </mxCell>
        <mxCell id="PFAiEy6SkgNWa5Sg33yF-34" style="edgeStyle=orthogonalEdgeStyle;rounded=0;orthogonalLoop=1;jettySize=auto;html=1;exitX=0;exitY=0.5;exitDx=0;exitDy=0;entryX=0.5;entryY=0;entryDx=0;entryDy=0;" edge="1" parent="1" source="PFAiEy6SkgNWa5Sg33yF-2" target="PFAiEy6SkgNWa5Sg33yF-14">
          <mxGeometry relative="1" as="geometry">
            <mxPoint x="340" y="300" as="sourcePoint" />
          </mxGeometry>
        </mxCell>
        <mxCell id="PFAiEy6SkgNWa5Sg33yF-57" value="" style="endArrow=classic;html=1;rounded=0;entryX=0;entryY=0.5;entryDx=0;entryDy=0;" edge="1" parent="1" source="PFAiEy6SkgNWa5Sg33yF-58" target="PFAiEy6SkgNWa5Sg33yF-1">
          <mxGeometry width="50" height="50" relative="1" as="geometry">
            <mxPoint x="110" y="70" as="sourcePoint" />
            <mxPoint x="310" y="120" as="targetPoint" />
          </mxGeometry>
        </mxCell>
        <mxCell id="PFAiEy6SkgNWa5Sg33yF-59" value="" style="endArrow=classic;html=1;rounded=0;entryX=0;entryY=0.5;entryDx=0;entryDy=0;" edge="1" parent="1" target="PFAiEy6SkgNWa5Sg33yF-58">
          <mxGeometry width="50" height="50" relative="1" as="geometry">
            <mxPoint x="110" y="70" as="sourcePoint" />
            <mxPoint x="340" y="70" as="targetPoint" />
          </mxGeometry>
        </mxCell>
        <mxCell id="PFAiEy6SkgNWa5Sg33yF-62" style="edgeStyle=orthogonalEdgeStyle;rounded=0;orthogonalLoop=1;jettySize=auto;html=1;exitX=0.5;exitY=0;exitDx=0;exitDy=0;entryX=0;entryY=0.5;entryDx=0;entryDy=0;" edge="1" parent="1" source="PFAiEy6SkgNWa5Sg33yF-58" target="PFAiEy6SkgNWa5Sg33yF-4">
          <mxGeometry relative="1" as="geometry" />
        </mxCell>
        <mxCell id="PFAiEy6SkgNWa5Sg33yF-58" value="" style="rhombus;whiteSpace=wrap;html=1;" vertex="1" parent="1">
          <mxGeometry x="110" y="30" width="80" height="80" as="geometry" />
        </mxCell>
        <mxCell id="PFAiEy6SkgNWa5Sg33yF-65" value="" style="edgeStyle=elbowEdgeStyle;rounded=0;orthogonalLoop=1;jettySize=auto;html=1;" edge="1" parent="1" source="PFAiEy6SkgNWa5Sg33yF-60" target="PFAiEy6SkgNWa5Sg33yF-18">
          <mxGeometry relative="1" as="geometry" />
        </mxCell>
        <mxCell id="PFAiEy6SkgNWa5Sg33yF-60" value="" style="rhombus;whiteSpace=wrap;html=1;" vertex="1" parent="1">
          <mxGeometry x="360" y="260" width="80" height="80" as="geometry" />
        </mxCell>
        <mxCell id="PFAiEy6SkgNWa5Sg33yF-68" value="" style="endArrow=classic;html=1;rounded=0;entryX=0.5;entryY=0;entryDx=0;entryDy=0;" edge="1" parent="1" target="PFAiEy6SkgNWa5Sg33yF-28">
          <mxGeometry width="50" height="50" relative="1" as="geometry">
            <mxPoint x="400" y="360" as="sourcePoint" />
            <mxPoint x="410" y="370" as="targetPoint" />
            <Array as="points">
              <mxPoint x="260" y="360" />
            </Array>
          </mxGeometry>
        </mxCell>
        <mxCell id="PFAiEy6SkgNWa5Sg33yF-69" value="" style="endArrow=classic;html=1;rounded=0;entryX=0.5;entryY=0;entryDx=0;entryDy=0;" edge="1" parent="1" target="PFAiEy6SkgNWa5Sg33yF-20">
          <mxGeometry width="50" height="50" relative="1" as="geometry">
            <mxPoint x="400" y="360" as="sourcePoint" />
            <mxPoint x="410" y="370" as="targetPoint" />
            <Array as="points">
              <mxPoint x="540" y="360" />
            </Array>
          </mxGeometry>
        </mxCell>
        <mxCell id="PFAiEy6SkgNWa5Sg33yF-70" value="" style="endArrow=classic;html=1;rounded=0;entryX=0.5;entryY=0;entryDx=0;entryDy=0;" edge="1" parent="1" target="PFAiEy6SkgNWa5Sg33yF-13">
          <mxGeometry width="50" height="50" relative="1" as="geometry">
            <mxPoint x="540" y="360" as="sourcePoint" />
            <mxPoint x="410" y="370" as="targetPoint" />
            <Array as="points">
              <mxPoint x="680" y="360" />
            </Array>
          </mxGeometry>
        </mxCell>
        <mxCell id="PFAiEy6SkgNWa5Sg33yF-71" value="" style="endArrow=classic;html=1;rounded=0;entryX=1;entryY=0.75;entryDx=0;entryDy=0;" edge="1" parent="1" target="PFAiEy6SkgNWa5Sg33yF-2">
          <mxGeometry width="50" height="50" relative="1" as="geometry">
            <mxPoint x="800" y="520" as="sourcePoint" />
            <mxPoint x="540" y="370" as="targetPoint" />
            <Array as="points">
              <mxPoint x="800" y="225" />
            </Array>
          </mxGeometry>
        </mxCell>
        <mxCell id="PFAiEy6SkgNWa5Sg33yF-72" value="" style="endArrow=none;html=1;rounded=0;exitX=0.5;exitY=1;exitDx=0;exitDy=0;" edge="1" parent="1" source="PFAiEy6SkgNWa5Sg33yF-28">
          <mxGeometry width="50" height="50" relative="1" as="geometry">
            <mxPoint x="440" y="410" as="sourcePoint" />
            <mxPoint x="800" y="520" as="targetPoint" />
            <Array as="points">
              <mxPoint x="260" y="520" />
            </Array>
          </mxGeometry>
        </mxCell>
        <mxCell id="PFAiEy6SkgNWa5Sg33yF-73" value="" style="endArrow=none;html=1;rounded=0;exitX=0.5;exitY=1;exitDx=0;exitDy=0;" edge="1" parent="1" source="PFAiEy6SkgNWa5Sg33yF-18">
          <mxGeometry width="50" height="50" relative="1" as="geometry">
            <mxPoint x="450" y="440" as="sourcePoint" />
            <mxPoint x="400" y="520" as="targetPoint" />
          </mxGeometry>
        </mxCell>
        <mxCell id="PFAiEy6SkgNWa5Sg33yF-74" value="" style="endArrow=none;html=1;rounded=0;exitX=0.5;exitY=1;exitDx=0;exitDy=0;" edge="1" parent="1">
          <mxGeometry width="50" height="50" relative="1" as="geometry">
            <mxPoint x="539.52" y="460" as="sourcePoint" />
            <mxPoint x="539.52" y="520" as="targetPoint" />
          </mxGeometry>
        </mxCell>
        <mxCell id="PFAiEy6SkgNWa5Sg33yF-75" value="" style="endArrow=none;html=1;rounded=0;exitX=0.5;exitY=1;exitDx=0;exitDy=0;" edge="1" parent="1">
          <mxGeometry width="50" height="50" relative="1" as="geometry">
            <mxPoint x="680" y="460" as="sourcePoint" />
            <mxPoint x="680" y="520" as="targetPoint" />
          </mxGeometry>
        </mxCell>
      </root>
    </mxGraphModel>
  </diagram>
</mxfile>
